<svg xmlns="http://www.w3.org/2000/svg" viewBox="0 0 850.39 850.39"><title>Artboard 2XXX</title><g id="Layer_2" data-name="Layer 2"><path d="M375.69,503.06A8.3,8.3,0,0,1,375,515q-39.15,33.3-90.5,33.3-55.59,0-91.89-34.26t-36.3-91.89q0-57.61,37-91.66t87.35-34q50.35,0,85.53,30.4t35.17,83.49v28a8.32,8.32,0,0,1-8.32,8.31H223.5q3.17,20,20.88,32.67A66.7,66.7,0,0,0,284.31,492q31.54,0,53.26-18.63a8.25,8.25,0,0,1,11.42.75ZM316.07,364.51Q302,352.72,281.81,352.72a61.31,61.31,0,0,0-37,12.25,46.33,46.33,0,0,0-18.31,26.79,5,5,0,0,0,4.85,6.33H326.6a5,5,0,0,0,4.95-5.86Q328.18,374.68,316.07,364.51Z"/><rect x="156.33" y="221.33" width="244.8" height="48.58" rx="2.34" ry="2.34"/><path d="M477.25,366.44a8.3,8.3,0,0,1,.66-11.93q39.15-33.3,90.49-33.3,55.59,0,91.89,34.26t36.3,91.89q0,57.61-37,91.66t-87.35,34q-50.37,0-85.53-30.4t-35.17-83.49v-28a8.31,8.31,0,0,1,8.32-8.31H629.44q-3.16-20-20.88-32.67a66.72,66.72,0,0,0-39.93-12.71q-31.54,0-53.26,18.63a8.25,8.25,0,0,1-11.42-.75ZM536.87,505q14.07,11.79,34.26,11.79a61.31,61.31,0,0,0,37-12.25,46.38,46.38,0,0,0,18.31-26.79,5,5,0,0,0-4.85-6.33H526.34a5,5,0,0,0-5,5.86Q524.77,494.82,536.87,505Z"/><rect x="451.81" y="599.6" width="244.8" height="48.58" rx="2.34" ry="2.34" transform="translate(1148.42 1247.77) rotate(180)"/></g></svg>